<svg width="56" height="56" viewBox="0 0 56 56" fill="none" xmlns="http://www.w3.org/2000/svg">
<circle cx="28" cy="28" r="28" fill="#F4F7FE"/>
<g clip-path="url(#clip0_0_12)">
<path d="M20.284 24.3136H20.5577C21.6113 24.3136 22.4734 25.1757 22.4734 26.2293V35.8082C22.4734 36.8618 21.6113 37.7239 20.5577 37.7239H20.284C19.2303 37.7239 18.3682 36.8618 18.3682 35.8082V26.2293C18.3682 25.1757 19.2303 24.3136 20.284 24.3136ZM27.947 18.5663C29.0007 18.5663 29.8628 19.4284 29.8628 20.482V35.8082C29.8628 36.8618 29.0007 37.7239 27.947 37.7239C26.8934 37.7239 26.0313 36.8618 26.0313 35.8082V20.482C26.0313 19.4284 26.8934 18.5663 27.947 18.5663ZM35.6101 29.5135C36.6638 29.5135 37.5259 30.3756 37.5259 31.4293V35.8082C37.5259 36.8618 36.6638 37.7239 35.6101 37.7239C34.5564 37.7239 33.6943 36.8618 33.6943 35.8082V31.4293C33.6943 30.3756 34.5564 29.5135 35.6101 29.5135Z" fill="#1C77FF"/>
</g>
<defs>
<clipPath id="clip0_0_12">
<rect width="32.8417" height="32.8417" fill="white" transform="translate(11.5264 11.7242)"/>
</clipPath>
</defs>
</svg>
