<svg width="56" height="56" viewBox="0 0 56 56" fill="none" xmlns="http://www.w3.org/2000/svg">
<circle cx="28" cy="28" r="28" fill="#F4F7FE"/>
<g clip-path="url(#clip0_0_21)">
<path d="M27.6733 26.6398C24.5671 25.8325 23.5681 24.9978 23.5681 23.6978C23.5681 22.2062 24.9502 21.1662 27.2628 21.1662C29.206 21.1662 30.1775 21.9052 30.5333 23.082C30.6975 23.6294 31.1491 24.0399 31.7238 24.0399H32.1343C33.0375 24.0399 33.6806 23.1504 33.3659 22.302C32.7912 20.6873 31.4501 19.3463 29.3154 18.8263V17.8821C29.3154 16.7463 28.3986 15.8295 27.2628 15.8295C26.127 15.8295 25.2102 16.7463 25.2102 17.8821V18.7852C22.5555 19.3599 20.4208 21.0841 20.4208 23.7252C20.4208 26.8862 23.0345 28.4598 26.8523 29.3767C30.2733 30.1977 30.9575 31.4019 30.9575 32.6745C30.9575 33.6187 30.287 35.1239 27.2628 35.1239C25.005 35.1239 23.8418 34.3166 23.3902 33.1671C23.185 32.6335 22.7197 32.2503 22.1587 32.2503H21.7755C20.8587 32.2503 20.2155 33.1808 20.5576 34.0292C21.3376 35.9313 23.1576 37.0534 25.2102 37.4913V38.4081C25.2102 39.5439 26.127 40.4607 27.2628 40.4607C28.3986 40.4607 29.3154 39.5439 29.3154 38.4081V37.5187C31.9838 37.0123 34.1048 35.466 34.1048 32.6608C34.1048 28.7746 30.7796 27.4472 27.6733 26.6398Z" fill="#1C77FF"/>
</g>
<defs>
<clipPath id="clip0_0_21">
<rect width="32.8417" height="32.8417" fill="white" transform="translate(11.5264 11.7242)"/>
</clipPath>
</defs>
</svg>
