<svg width="56" height="56" viewBox="0 0 56 56" fill="none" xmlns="http://www.w3.org/2000/svg">
<circle cx="28" cy="28" r="28" fill="#F4F7FE"/>
<path d="M31.7653 21.75C31.7653 22.7446 31.3521 23.6984 30.6165 24.4017C29.881 25.1049 28.8834 25.5 27.8432 25.5C26.803 25.5 25.8054 25.1049 25.0698 24.4017C24.3343 23.6984 23.9211 22.7446 23.9211 21.75C23.9211 20.7554 24.3343 19.8016 25.0698 19.0983C25.8054 18.3951 26.803 18 27.8432 18C28.8834 18 29.881 18.3951 30.6165 19.0983C31.3521 19.8016 31.7653 20.7554 31.7653 21.75ZM20 35.868C20.0336 33.9004 20.8747 32.0242 22.3419 30.644C23.8092 29.2639 25.7849 28.4905 27.8432 28.4905C29.9014 28.4905 31.8772 29.2639 33.3444 30.644C34.8116 32.0242 35.6528 33.9004 35.6864 35.868C33.2258 36.9468 30.5501 37.5035 27.8432 37.5C25.0444 37.5 22.3878 36.916 20 35.868Z" stroke="#2C86EF" stroke-width="1.5" stroke-linecap="round" stroke-linejoin="round"/>
</svg>
